
        <svg xmlns="http://www.w3.org/2000/svg" xmlns:xlink="http://www.w3.org/1999/xlink" version="1.1" width="3222.222222222222" 
        height="2103.8148221854426" viewBox="0 0 3222.222222222222 2103.8148221854426">
			
			<g transform="scale(11.11111111111111) translate(10, 10)">
				<defs id="SvgjsDefs1519"></defs><g id="SvgjsG1520" featureKey="symbolFeature-0" transform="matrix(1.4634908261575728,0,0,1.4634908261575728,61.682545869212134,-19.177360608977306)" fill="#856da6"><path xmlns="http://www.w3.org/2000/svg" d="M91.6,24.3L65.3,48l-3,2.7h-4.1l1.5-2.9l0,0L76,16.1c0.5-1,0.1-2.3-0.9-2.8c-1-0.5-2.3,0-2.7,1L57.5,46.5l-2,4.3H6.9  c-1,0-1.9,0.9-1.9,1.9v1.2c0,13.7,7.3,23,18.3,29.5c0.6,0.3,0.9,1,0.9,1.6v0c0,1,0.9,1.9,1.9,1.9h33.1c0.5,0,1-0.2,1.4-0.6  c0.3-0.4,0.6-0.8,0.6-1.4c0-0.7,0.4-1.3,1-1.6c11-6.4,18.3-15.8,18.3-29.5v-1.2c0-1-0.9-1.9-1.9-1.9H66.2l0.7-0.5l0,0l27.3-22.9  c0.9-0.7,1-2,0.3-2.9C93.8,23.5,92.4,23.5,91.6,24.3z M27.8,75.4c-6-2-12.6-8.9-12.8-16.2v-0.8h2.5v0.8c0.2,6.1,6,12.2,11.1,13.8  L27.8,75.4z"></path></g><g id="SvgjsG1521" featureKey="nameFeature-0" transform="matrix(0.5753789578293065,0,0,0.5753789578293065,-2.531668018045496,122.66048452243506)" fill="#7d60a6"><path d="M8.76 14.52 l0 9.92 q1.24 -0.72 2.76 -0.96 q1.12 -0.2 2.88 -0.2 l5.68 0 q2.36 0 3.68 -1.08 q1.4 -1.16 1.4 -3.48 q0 -2.2 -1.48 -3.28 q-1.28 -0.92 -3.6 -0.92 l-11.32 0 z M21.52 35.28 l-3.64 -7.64 l-3.48 0 q-1.64 0 -2.88 0.2 q-1.52 0.28 -2.76 0.96 l0 11.2 l-4.36 0 l0 -29.84 l15.68 0 q2.76 0 4.88 1.04 t3.28 2.96 q1.24 2.04 1.24 4.8 q0 3.36 -1.8 5.52 t-5.08 3 l2.32 4.76 q1 1.48 1.56 2.08 q0.68 0.76 1.3 1.02 t1.62 0.26 l0.44 0 l0.96 -0.04 l0 4.44 q-2.32 0 -3.44 -0.16 q-1.88 -0.32 -3.2 -1.24 q-1.56 -1.12 -2.64 -3.32 z M43.164 28.04 l0 7.6 l18.4 0 l0 4.36 l-22.76 0 l0 -29.84 l21 0 l0 4.4 l-16.64 0 l0 9.04 q1.24 -0.72 2.76 -0.96 q1.12 -0.2 2.88 -0.2 l6.52 0 l0 4.44 l-6.52 0 q-1.64 0 -2.88 0.2 q-1.52 0.28 -2.76 0.96 z M92.56800000000001 30.92 q0 2.92 -1.76 5.2 q-1.72 2.16 -4.74 3.36 t-6.82 1.2 q-3.48 0 -6.76 -1.62 t-5.52 -4.5 l3.12 -2.92 q3.88 4.68 9.16 4.68 q2.32 0 4.24 -0.56 q2.12 -0.64 3.28 -1.8 q1.32 -1.28 1.32 -3.04 q0 -2.12 -1.32 -3.2 q-1.12 -0.92 -3.32 -1.2 q-1.28 -0.16 -4.2 -0.16 q-5.36 0 -8.18 -1.96 t-2.82 -5.76 q0 -2.4 1.42 -4.56 t3.9 -3.44 q2.56 -1.36 5.68 -1.36 q3.52 0 6.36 1.08 q3.04 1.16 5.64 3.64 l-2.72 3.2 q-2.44 -1.96 -4.44 -2.74 t-4.84 -0.78 q-1.64 0 -3.06 0.68 t-2.26 1.82 t-0.84 2.42 q0 3.44 6.36 3.44 q5.08 0 8.04 1.04 q2.8 1 4 3.04 q1.08 1.8 1.08 4.8 z M121.97200000000001 14.559999999999999 l-10.52 0 l0 25.44 l-4.24 0 l0 -25.44 l-10.64 0 l0 -4.4 l25.4 0 l0 4.4 z M137.696 13.32 l-1.64 -3.68 l4.8 0 l14.36 30.36 l-4.88 0 l-1.96 -4.36 l-9.08 0 q-2.56 0 -4.6 0.48 q-1.8 0.44 -3 1.16 q-1.08 0.64 -1.44 1.32 l-0.76 1.4 l-4.72 0 z M140.89600000000002 31.240000000000002 l5.52 0 l-6.52 -12.6 l-6.6 14.28 q0.88 -0.76 2.68 -1.2 q2.04 -0.48 4.92 -0.48 z M174.62 40.68 q-4.2 0 -7.22 -1.46 t-4.6 -4.22 t-1.58 -6.6 l0 -18.24 l4.32 0 l0 18.24 q0 3.84 2.36 5.88 t6.72 2.04 t6.72 -2.04 t2.36 -5.88 l0 -18.24 l4.32 0 l0 18.24 q0 3.84 -1.58 6.6 t-4.6 4.22 t-7.22 1.46 z M201.584 14.52 l0 9.92 q1.24 -0.72 2.76 -0.96 q1.12 -0.2 2.88 -0.2 l5.68 0 q2.36 0 3.68 -1.08 q1.4 -1.16 1.4 -3.48 q0 -2.2 -1.48 -3.28 q-1.28 -0.92 -3.6 -0.92 l-11.32 0 z M214.34400000000002 35.28 l-3.64 -7.64 l-3.48 0 q-1.64 0 -2.88 0.2 q-1.52 0.28 -2.76 0.96 l0 11.2 l-4.36 0 l0 -29.84 l15.68 0 q2.76 0 4.88 1.04 t3.28 2.96 q1.24 2.04 1.24 4.8 q0 3.36 -1.8 5.52 t-5.08 3 l2.32 4.76 q1 1.48 1.56 2.08 q0.68 0.76 1.3 1.02 t1.62 0.26 l0.44 0 l0.96 -0.04 l0 4.44 q-2.32 0 -3.44 -0.16 q-1.88 -0.32 -3.2 -1.24 q-1.56 -1.12 -2.64 -3.32 z M240.948 13.32 l-1.64 -3.68 l4.8 0 l14.36 30.36 l-4.88 0 l-1.96 -4.36 l-9.08 0 q-2.56 0 -4.6 0.48 q-1.8 0.44 -3 1.16 q-1.08 0.64 -1.44 1.32 l-0.76 1.4 l-4.72 0 z M244.14800000000002 31.240000000000002 l5.52 0 l-6.52 -12.6 l-6.6 14.28 q0.88 -0.76 2.68 -1.2 q2.04 -0.48 4.92 -0.48 z M265.75199999999995 14.36 l-3.48 -4.2 l5.64 0 l19.16 22.8 l0 -22.8 l4.4 0 l0 29.84 l-4.32 0 l-17.12 -20.52 l0 20.52 l-4.28 0 l0 -25.64 z M323.276 14.559999999999999 l-10.52 0 l0 25.44 l-4.24 0 l0 -25.44 l-10.64 0 l0 -4.4 l25.4 0 l0 4.4 z M346.67999999999995 27.16 l-19 0 l0 -3.72 l19 0 l0 3.72 z M358.604 14.559999999999999 l0 9.12 q1.24 -0.72 2.8 -1 q1.16 -0.2 2.88 -0.2 l5.12 0 q2.08 0 3.26 -1.04 t1.18 -3.08 q0 -3.8 -4.44 -3.8 l-10.8 0 z M358.604 28.119999999999997 l0 7.52 l11.24 0 q1.32 0 2.52 -0.48 q1.32 -0.48 2.08 -1.4 q0.88 -1.08 0.88 -2.48 q0 -2.4 -1.88 -3.48 q-1.48 -0.88 -4.04 -0.88 l-5.12 0 q-3.44 0 -5.68 1.2 z M379.64399999999995 31.84 q0 2.8 -1.56 4.76 q-1.36 1.72 -3.84 2.6 q-2.2 0.8 -4.84 0.8 l-15.12 0 l0 -29.84 l15.12 0 q2.56 0 4.54 0.96 t3.1 2.76 q1.16 1.88 1.16 4.44 q0 1.96 -0.7 3.5 t-1.98 2.38 q1.72 0.8 2.84 2.64 q1.28 2.12 1.28 5 z M392.0079999999999 28.04 l0 7.6 l18.4 0 l0 4.36 l-22.76 0 l0 -29.84 l21 0 l0 4.4 l-16.64 0 l0 9.04 q1.24 -0.72 2.76 -0.96 q1.12 -0.2 2.88 -0.2 l6.52 0 l0 4.44 l-6.52 0 q-1.64 0 -2.88 0.2 q-1.52 0.28 -2.76 0.96 z M440.412 14.559999999999999 l-10.52 0 l0 25.44 l-4.24 0 l0 -25.44 l-10.64 0 l0 -4.4 l25.4 0 l0 4.4 z M456.13599999999997 13.32 l-1.64 -3.68 l4.8 0 l14.36 30.36 l-4.88 0 l-1.96 -4.36 l-9.08 0 q-2.56 0 -4.6 0.48 q-1.8 0.44 -3 1.16 q-1.08 0.64 -1.44 1.32 l-0.76 1.4 l-4.72 0 z M459.33599999999996 31.240000000000002 l5.52 0 l-6.52 -12.6 l-6.6 14.28 q0.88 -0.76 2.68 -1.2 q2.04 -0.48 4.92 -0.48 z"></path></g><g id="SvgjsG1522" featureKey="sloganFeature-0" transform="matrix(0.8498937405878152,0,0,0.8498937405878152,66.15010605678172,152.05649396766742)" fill="#7fa4cf"><path d="M13.8 15.46 q0 1.46 -0.88 2.6 q-0.86 1.08 -2.37 1.68 t-3.41 0.6 q-1.74 0 -3.38 -0.81 t-2.76 -2.25 l1.56 -1.46 q1.94 2.34 4.58 2.34 q1.16 0 2.12 -0.28 q1.06 -0.32 1.64 -0.9 q0.66 -0.64 0.66 -1.52 q0 -1.06 -0.66 -1.6 q-0.56 -0.46 -1.66 -0.6 q-0.64 -0.08 -2.1 -0.08 q-2.68 0 -4.09 -0.98 t-1.41 -2.88 q0 -1.2 0.71 -2.28 t1.95 -1.72 q1.28 -0.68 2.84 -0.68 q1.76 0 3.18 0.54 q1.52 0.58 2.82 1.82 l-1.36 1.6 q-1.22 -0.98 -2.22 -1.37 t-2.42 -0.39 q-0.82 0 -1.53 0.34 t-1.13 0.91 t-0.42 1.21 q0 1.72 3.18 1.72 q2.54 0 4.02 0.52 q1.4 0.5 2 1.52 q0.54 0.9 0.54 2.4 z M27.46 20 l-10.46 0 l0 -14.92 l2.18 0 l0 12.74 l8.28 0 l0 2.18 z M42.96 12.440000000000001 q0 -1.6 -0.82 -2.9 q-0.78 -1.26 -2.13 -1.98 t-2.93 -0.72 q-1.64 0 -2.99 0.74 t-2.11 2.02 q-0.78 1.34 -0.78 2.98 q0 1.56 0.84 2.88 q0.8 1.24 2.15 1.97 t2.92 0.73 t2.92 -0.76 t2.13 -2.04 q0.8 -1.34 0.8 -2.92 z M45.120000000000005 12.559999999999999 q0 2.16 -1.12 3.98 q-1.08 1.74 -2.93 2.77 t-3.99 1.03 q-2.22 0 -4.08 -1.08 q-1.82 -1.04 -2.86 -2.86 q-1.08 -1.86 -1.08 -4.08 q0 -2.14 1.14 -3.94 q1.08 -1.72 2.93 -2.73 t3.97 -1.01 q2.18 0 4.04 1.06 q1.82 1.04 2.88 2.82 q1.1 1.86 1.1 4.04 z M61.3 7 l-1.4 1.64 q-0.82 -0.84 -1.96 -1.32 t-2.4 -0.48 q-1.64 0 -2.99 0.74 t-2.11 2.02 q-0.78 1.34 -0.78 2.98 q0 1.56 0.84 2.88 q0.8 1.24 2.15 1.97 t2.91 0.73 q1.1 0 2.11 -0.38 t1.81 -1.06 l0 -2.72 l-1.92 0 l-0.94 -2.16 l5.02 0 l0 5.8 q-1.14 1.28 -2.73 1.99 t-3.37 0.71 q-2.22 0 -4.08 -1.08 q-1.82 -1.04 -2.86 -2.86 q-1.08 -1.86 -1.08 -4.08 q0 -2.14 1.14 -3.94 q1.08 -1.72 2.93 -2.73 t3.97 -1.01 q1.66 0 3.16 0.64 q1.46 0.6 2.58 1.72 z M70 6.66 l-0.82 -1.84 l2.4 0 l7.18 15.18 l-2.44 0 l-0.98 -2.18 l-4.54 0 q-1.28 0 -2.3 0.24 q-0.9 0.22 -1.5 0.58 q-0.54 0.32 -0.72 0.66 l-0.38 0.7 l-2.36 0 z M71.6 15.620000000000001 l2.76 0 l-3.26 -6.3 l-3.3 7.14 q0.44 -0.38 1.34 -0.6 q1.02 -0.24 2.46 -0.24 z M82 7.18 l-1.74 -2.1 l2.82 0 l9.58 11.4 l0 -11.4 l2.2 0 l0 14.92 l-2.16 0 l-8.56 -10.26 l0 10.26 l-2.14 0 l0 -12.82 z M115.78 7.279999999999999 l-5.26 0 l0 12.72 l-2.12 0 l0 -12.72 l-5.32 0 l0 -2.2 l12.7 0 l0 2.2 z M120.76 14.02 l0 3.8 l9.2 0 l0 2.18 l-11.38 0 l0 -14.92 l10.5 0 l0 2.2 l-8.32 0 l0 4.52 q0.62 -0.36 1.38 -0.48 q0.56 -0.1 1.44 -0.1 l3.26 0 l0 2.22 l-3.26 0 q-0.82 0 -1.44 0.1 q-0.76 0.14 -1.38 0.48 z M146.92000000000002 20 l-2.76 0 l-4.58 -6.28 l-4.74 6.28 l-2.78 0 l6.12 -8.1 l-4.92 -6.82 l2.64 0 l3.68 4.98 l3.74 -4.98 l2.7 0 l-5.06 6.82 z M161.02000000000004 7.279999999999999 l-5.26 0 l0 12.72 l-2.12 0 l0 -12.72 l-5.32 0 l0 -2.2 l12.7 0 l0 2.2 z"></path></g>
			</g>
		</svg>
	