
        <svg xmlns="http://www.w3.org/2000/svg" xmlns:xlink="http://www.w3.org/1999/xlink" version="1.1" width="100.682926829268" 
        height="50.739315615896" viewBox="0 0 3292.682926829268 1642.739315615896">
			<rect fill="#1d97c1" width="3292.682926829268" height="1642.739315615896"/>
			<g transform="scale(14.634146341463415) translate(10, 10)">
				<defs id="SvgjsDefs3624"></defs><g id="SvgjsG3625" featureKey="2ou6gm-0" transform="matrix(1.213840581981484,0,0,1.213840581981484,3.9083978982102323,6.647753598203677)" fill="#ffffff"><g xmlns="http://www.w3.org/2000/svg"><defs><rect id="a" width="80" height="80"></rect></defs><clipPath id="b"><use xmlns:xlink="http://www.w3.org/1999/xlink" xlink:href="#a" style="" overflow="visible"></use></clipPath><path d="M64,11H16c-1.7,0-3,1.4-2.7,3.1l6.4,44.1c0.2,1.4,1.3,3,2.6,3.6L37.8,70c1.3,0.7,3.2,0.7,4.5,0l15.5-8.1   c1.3-0.7,2.4-2.2,2.6-3.6l6.4-44.1C66.9,12.4,65.7,11,64,11 M58.3,57.9c-0.1,0.8-0.8,1.8-1.5,2.2l-15.5,8.1c-0.7,0.4-1.9,0.4-2.6,0   L23.2,60c-0.7-0.4-1.4-1.4-1.5-2.2l-6.4-44.1C15.2,13.3,15.5,13,16,13h48c0.5,0,0.8,0.4,0.7,0.8L58.3,57.9z" style="clip-path: url(#b);"></path><path d="M32.7,28.3c-0.4-0.4-1-0.4-1.4,0l-8,8c-0.4,0.4-0.4,1,0,1.4l8,8c0.4,0.4,1,0.4,1.4,0c0.4-0.4,0.4-1,0-1.4   L25.4,37l7.3-7.3C33.1,29.3,33.1,28.7,32.7,28.3" style="clip-path: url(#b);"></path><path d="M48.7,28.3c-0.4-0.4-1-0.4-1.4,0c-0.4,0.4-0.4,1,0,1.4l7.3,7.3l-7.3,7.3c-0.4,0.4-0.4,1,0,1.4   c0.4,0.4,1,0.4,1.4,0l8-8c0.4-0.4,0.4-1,0-1.4L48.7,28.3z" style="clip-path: url(#b);"></path><path d="M45.4,26.1c-0.5-0.2-1.1,0-1.3,0.4l-10,20c-0.2,0.5,0,1.1,0.4,1.3c0.5,0.2,1.1,0,1.3-0.4l10-20   C46.1,27,45.9,26.4,45.4,26.1" style="clip-path: url(#b);"></path></g></g><g id="SvgjsG3626" featureKey="kZnDdN-0" transform="matrix(1.2916558061294325,0,0,1.2916558061294325,103.45001235514425,39.560062261057915)" fill="#ffffff"><path d="M2.86 18.44 l6.66 0 l0 1.56 l-7.06 0 l-1.26 0 l0 -14 l1.66 0 l6.48 0 l0 1.56 l-6.48 0 l0 4.64 l5.04 0 l0 1.52 l-5.04 0 l0 4.72 z M22.939999999999998 6 l1.76 0 l-6.26 14 l-1.38 0 l-6.24 -14 l1.76 0 l5.18 11.82 z M27.96 18.44 l6.66 0 l0 1.56 l-7.06 0 l-1.26 0 l0 -14 l1.66 0 l6.48 0 l0 1.56 l-6.48 0 l0 4.64 l5.04 0 l0 1.52 l-5.04 0 l0 4.72 z M47 20 l-1.8 0 l-3.54 -5.04 l-0.38 0 l-2.9 0 l0 5.04 l-1.66 0 l0 -14 l4.56 0 c3.14 0 4.96 1.92 4.96 4.52 c0 2 -1.08 3.56 -3 4.16 z M38.38 7.5600000000000005 l0 5.92 l2.86 0 c2.02 0 3.34 -1.04 3.34 -2.96 c0 -1.94 -1.32 -2.96 -3.34 -2.96 l-2.86 0 z M50.46 18.44 l6.66 0 l0 1.56 l-7.06 0 l-1.26 0 l0 -14 l1.66 0 l6.48 0 l0 1.56 l-6.48 0 l0 4.64 l5.04 0 l0 1.52 l-5.04 0 l0 4.72 z M63.52 5.76 c2.18 0 3.78 1.44 4.38 2.94 l-1.26 0.68 c-0.64 -1.28 -1.66 -2.12 -3.12 -2.12 c-1.54 0 -2.6 0.88 -2.6 2.1 c0 1.14 0.72 1.86 2.24 2.44 l1.02 0.38 c2.52 0.94 4.1 2.02 4.1 4.24 c0 2.4 -2.3 3.88 -4.68 3.88 s-4.34 -1.44 -4.88 -3.44 l1.34 -0.64 c0.48 1.48 1.74 2.56 3.54 2.56 c1.6 0 2.96 -0.92 2.96 -2.34 c0 -1.6 -1.12 -2.2 -2.78 -2.84 l-1.04 -0.4 c-2.12 -0.8 -3.48 -1.9 -3.48 -3.88 c0 -2.04 1.8 -3.56 4.26 -3.56 z M78.62 6 l0 1.56 l-3.88 0 l0 12.44 l-1.66 0 l0 -12.44 l-3.9 0 l0 -1.56 l9.44 0 z"></path></g>
			</g>
		</svg>
	