
        <svg xmlns="http://www.w3.org/2000/svg" xmlns:xlink="http://www.w3.org/1999/xlink" version="1.1" width="3187.5" 
        height="806.8905367172484" viewBox="0 0 3187.5 806.8905367172484">
			<rect fill="#FFFFFF" width="3187.5" height="806.8905367172484"/>
			<g transform="scale(9.375) translate(10, 10)">
				<defs id="SvgjsDefs2080"><linearGradient id="SvgjsLinearGradient2085"><stop id="SvgjsStop2086" stop-color="#8f5e25" offset="0"></stop><stop id="SvgjsStop2087" stop-color="#fbf4a1" offset="0.5"></stop><stop id="SvgjsStop2088" stop-color="#8f5e25" offset="1"></stop></linearGradient><linearGradient id="SvgjsLinearGradient2089"><stop id="SvgjsStop2090" stop-color="#8f5e25" offset="0"></stop><stop id="SvgjsStop2091" stop-color="#fbf4a1" offset="0.5"></stop><stop id="SvgjsStop2092" stop-color="#8f5e25" offset="1"></stop></linearGradient></defs><g id="SvgjsG2081" featureKey="odWo6G-0" transform="matrix(1.4075519751066736,0,0,1.4075519751066736,-19.283452394069023,-41.66776470583182)" fill="url(#SvgjsLinearGradient2085)"><g xmlns="http://www.w3.org/2000/svg"><path d="M70.207,70.5H29.793l-11-11h62.414L70.207,70.5z M30.207,69.5h39.586l9-9H21.207L30.207,69.5z"></path><path d="M43.214,41.959h-1c0-0.458,0.184-0.957,0.378-1.485c0.191-0.517,0.406-1.103,0.325-1.418   c-0.116-0.454-0.554-1.088-0.977-1.703c-0.573-0.833-1.167-1.693-1.243-2.467c-0.078-0.783,0.432-1.64,0.926-2.467   c0.367-0.617,0.824-1.385,0.729-1.737c-0.009-0.034-0.03-0.114-0.193-0.204l0.484-0.875c0.354,0.196,0.581,0.471,0.675,0.818   c0.205,0.761-0.301,1.61-0.837,2.51c-0.392,0.657-0.835,1.401-0.79,1.856c0.053,0.518,0.594,1.305,1.072,1.999   c0.494,0.718,0.961,1.395,1.122,2.02c0.159,0.619-0.103,1.328-0.354,2.014C43.375,41.242,43.214,41.679,43.214,41.959z"></path><path d="M50.968,41.959h-1c0-0.458,0.184-0.957,0.378-1.485c0.191-0.517,0.406-1.103,0.325-1.418   c-0.116-0.454-0.554-1.088-0.977-1.703c-0.573-0.833-1.167-1.693-1.243-2.467c-0.078-0.783,0.432-1.64,0.926-2.467   c0.367-0.617,0.824-1.385,0.729-1.737c-0.009-0.034-0.03-0.114-0.193-0.204l0.484-0.875c0.354,0.196,0.581,0.471,0.675,0.818   c0.205,0.761-0.301,1.61-0.837,2.51c-0.392,0.657-0.835,1.401-0.79,1.856c0.053,0.518,0.594,1.305,1.072,1.999   c0.494,0.718,0.961,1.395,1.122,2.02c0.159,0.619-0.103,1.328-0.354,2.014C51.129,41.242,50.968,41.679,50.968,41.959z"></path><path d="M58.591,41.959h-1c0-0.458,0.184-0.957,0.378-1.485c0.191-0.517,0.406-1.103,0.325-1.418   c-0.116-0.454-0.554-1.088-0.977-1.703c-0.573-0.833-1.167-1.693-1.243-2.467c-0.078-0.783,0.432-1.64,0.926-2.467   c0.367-0.617,0.824-1.385,0.729-1.737c-0.009-0.034-0.03-0.114-0.193-0.204l0.484-0.875c0.354,0.196,0.581,0.471,0.675,0.818   c0.205,0.761-0.301,1.61-0.837,2.51c-0.392,0.657-0.835,1.401-0.79,1.856c0.053,0.518,0.594,1.305,1.072,1.999   c0.494,0.718,0.961,1.395,1.122,2.02c0.159,0.619-0.103,1.328-0.354,2.014C58.752,41.242,58.591,41.679,58.591,41.959z"></path><path d="M70.788,60c0,0,14.911-5.837,13.909-10c-0.261-1.081-3.395-0.515-4.447-0.156C76.505,51.12,68.064,59.94,68.064,59.94   L70.788,60z"></path><path d="M19.25,59.5c3.789-1.9,13.475,0.442,18.725-0.067c2.525-0.245,0.625,3.108-0.891,3.646c-0.753,0.268-4.171-1.104-5-1.011   c-0.857,0.097-2.601,1.276-3.459,1.369c-1.916,0.208-3.41-0.255-4.15-0.291c-1.061-0.052-4.587,0.54-5.225-0.067   C18.098,61.98,18.227,60.014,19.25,59.5z"></path><path d="M63.843,58.744c3.924-0.008,0.626,3.108-0.891,3.646c-0.753,0.268-4.171-1.104-5-1.011   c-0.857,0.097-2.528,1.307-4.325,0.691C45.89,59.421,58.568,58.755,63.843,58.744z"></path><path d="M24.968,69.521c-0.106-0.68-2.124-0.962-3.254-1.039c-0.536-0.037-1.571-0.108-2.097-0.006   c-0.463,0.092-0.728,0.45-1.195,0.538c-1.074,0.203-2.6-0.288-3.579-0.049c-1.037,0.254-1.397,1.649-0.962,2.088   c1.076,1.079,6.51,0.152,8.287,0.155c0.777,0,1.979,0.115,2.515-0.139C25.393,70.734,25.159,69.954,24.968,69.521"></path><path d="M45.932,73.563c-2.498,0.986,1.986,2.645,3.644,2.922c1.495,0.251,3.327-0.376,4.509-1.068c3.416-2-0.63-2.128-1.715-2.506   C52.369,72.911,47.709,72.861,45.932,73.563z"></path><path d="M79.074,69.686c3.83-0.851,1.279,2.901-0.086,3.752c-0.678,0.423-4.311-0.184-5.102,0.087   C73.07,73.803,73.925,70.829,79.074,69.686z"></path></g></g><g id="SvgjsG2082" featureKey="VGK2BT-0" transform="matrix(1.6084661434823908,0,0,1.6084661434823908,118.33729596816447,11.640898876735415)" fill="url(#SvgjsLinearGradient2089)"><path d="M6.949 12.034099999999999 c0.18644 0.11864 0.23729 0.22017 0.11848 0.40661 l-0.69475 1.0169 c-0.084746 0.11864 -0.20339 0.15254 -0.35593 0.11864 c-0.35593 -0.16949 -0.66102 -0.32203 -1.2203 -0.32203 s-1.4407 0.23729 -1.9153 1.2881 l0 5.1866 c0 0.15238 -0.10169 0.27102 -0.25424 0.27102 l-1.339 0 c-0.15254 0 -0.25424 -0.11864 -0.25424 -0.27102 l0 -7.8476 c0 -0.15238 0.11864 -0.27119 0.25424 -0.27119 l0.9322 0 c0.40678 0 0.66102 0.42373 0.66102 0.72881 l0 0.11881 c0.59322 -0.54237 1.3051 -0.91525 2.2373 -0.91525 c0.86441 0 1.5085 0.27119 1.8305 0.49153 z M15.203383050847457 16.4915 c0.61 0 1.0336 -0.30508 1.0336 -1.0169 c0 -2.0847 -1.6102 -3.9831 -4.0847 -3.9831 c-2.3559 0 -4.2034 1.8644 -4.2034 4.3051 c0 2.5422 1.9322 4.288 4.3051 4.288 c1.5085 0 2.6949 -0.61017 3.4237 -1.5932 c0.10186 -0.13559 0.067963 -0.23729 -0.033568 -0.37288 l-0.32203 -0.42373 c-0.13559 -0.16933 -0.27119 -0.15254 -0.44085 -0.050847 c-0.5422 0.44068 -1.4405 0.81373 -2.4236 0.81373 c-1.3898 0 -2.3729 -0.84746 -2.5593 -1.9661 l5.3051 0 z M9.898183050847457 15.050799999999999 c0.067797 -0.81356 0.83051 -1.8644 2.2203 -1.8644 c1.4068 0 2.1356 1.0678 2.1864 1.8644 l-4.4068 0 z M17.677796779661016 18.7798 l0.5761 -0.91508 c0.11864 -0.18661 0.22034 -0.23746 0.38983 -0.15271 c0.016949 0.033898 1.0508 0.64407 2.1864 0.64407 c0.98305 0 1.322 -0.38983 1.322 -0.77966 c0 -0.57627 -0.62712 -0.77949 -1.7627 -1.0676 c-1.6102 -0.42373 -2.678 -1.2542 -2.678 -2.5424 c0 -1.2712 1.0847 -2.4576 3.1186 -2.4576 c1.2373 0 2.0847 0.42373 2.7627 0.81356 c0.16949 0.10169 0.25424 0.25424 0.15254 0.38983 l-0.62712 0.9661 c-0.084746 0.13559 -0.22034 0.18644 -0.37288 0.13559 c-0.44068 -0.22017 -1.1525 -0.54237 -1.9153 -0.54237 c-0.94915 0 -1.2034 0.47458 -1.2034 0.76271 c0 0.49153 0.71186 0.72881 1.5763 0.96593 c1.5086 0.40678 3.0171 1.1356 3.0171 2.6102 c0 1.4237 -1.3558 2.5083 -3.3898 2.5083 c-1.3898 0 -2.6441 -0.6778 -3.0678 -1.0168 c-0.11864 -0.067797 -0.15254 -0.23729 -0.084746 -0.32203 z M30.830315254237288 19.4578 c0.050847 0.13559 -0.050681 0.22 -0.16933 0.30475 c-0.28814 0.18644 -0.91525 0.32203 -1.5424 0.32203 c-1.8136 0 -2.4746 -0.9322 -2.4746 -3.1186 l0 -3.5763 l-1 0 c-0.15254 0 -0.27119 -0.10169 -0.27119 -0.27119 l0 -0.28814 c0 -0.13559 0.033898 -0.23712 0.13559 -0.33898 c0.98305 -0.79661 1.7627 -1.6269 2.4407 -3.339 c0.050847 -0.11864 0.10169 -0.18644 0.18644 -0.18644 l0.18644 0 c0.13559 0 0.18644 0.067797 0.18644 0.22034 l0 2.4237 l1.7797 0 c0.15254 0 0.28814 0.11881 0.28814 0.28831 l0 1.2203 c0 0.15254 -0.13559 0.27119 -0.28814 0.27119 l-1.4746 0 c-0.13559 0 -0.25424 -0.016949 -0.32203 -0.050847 l0 3.4576 c0 0.98305 0.11864 1.5424 0.94915 1.5424 c0.35593 0 0.59322 -0.050847 0.79661 -0.10169 s0.33898 0.033898 0.37288 0.22051 z M39.71167627118644 19.62712 c-0.22034 -1.661 -0.2368 -3.2032 -0.16916 -4.8302 c0.084746 -2 -1.0169 -3.2881 -3.0847 -3.2881 c-1.3559 0 -2.7627 0.40678 -3.5932 0.86441 c-0.15254 0.084746 -0.25424 0.23712 -0.18644 0.38966 l0.42373 0.98305 c0.067797 0.16949 0.18644 0.22034 0.40678 0.11864 c1.0847 -0.49153 1.9661 -0.72881 2.8305 -0.72881 c0.91525 0 1.4576 0.35593 1.4237 1.322 c-3.1356 0.5422 -5.5254 1.1015 -5.5254 3.3049 c0 1.4746 1.0678 2.3219 2.7966 2.3219 c1.4408 0 2.1864 -0.44051 2.8983 -0.98288 c0.08458 0.50847 0.23712 0.89831 0.5761 0.89831 l1.0169 0 c0.15238 0 0.20322 -0.18644 0.18627 -0.37288 z M35.35607627118644 18.627299999999998 c-0.69492 0 -1.2373 -0.23729 -1.2373 -0.88136 c0 -1.0339 1.8981 -1.3729 3.6102 -1.7288 c-0.016949 0.55932 -0.016949 1.3051 0 1.7966 c-0.55932 0.42373 -1.5085 0.81356 -2.3729 0.81356 z M49.372867796610166 11.6102 c0.15254 0 0.25424 0.11881 0.25424 0.28831 l0 7.8305 c0 0.15238 -0.10169 0.27102 -0.23729 0.27102 l-1.0508 0 c-0.28814 0 -0.52542 -0.42356 -0.54237 -0.71169 l0 -0.18644 c-0.66102 0.50847 -1.5593 0.99983 -2.7119 0.99983 c-1.7458 0 -3.4915 -1.1015 -3.4915 -3.2202 l0 -3.7458 c0 -0.45763 -0.033898 -0.81356 -0.084746 -1.1695 c-0.033898 -0.18644 0.016949 -0.35593 0.16949 -0.35593 l1.1017 0 c0.42373 0 0.66102 0.28814 0.66102 0.67797 l0 4.4237 c0 1.1186 0.76271 1.7458 1.8983 1.7458 c0.9661 0 1.7627 -0.54237 2.4576 -1.2373 l0 -5.322 c0 -0.16949 0.10169 -0.28831 0.25407 -0.28831 l1.3222 0 z M57.508322033898295 12.034099999999999 c0.18644 0.11864 0.23729 0.22017 0.11848 0.40661 l-0.69475 1.0169 c-0.084746 0.11864 -0.20339 0.15254 -0.35593 0.11864 c-0.35593 -0.16949 -0.66102 -0.32203 -1.2203 -0.32203 s-1.4407 0.23729 -1.9153 1.2881 l0 5.1866 c0 0.15238 -0.10169 0.27102 -0.25424 0.27102 l-1.339 0 c-0.15254 0 -0.25424 -0.11864 -0.25424 -0.27102 l0 -7.8476 c0 -0.15238 0.11864 -0.27119 0.25424 -0.27119 l0.9322 0 c0.40678 0 0.66102 0.42373 0.66102 0.72881 l0 0.11881 c0.59322 -0.54237 1.3051 -0.91525 2.2373 -0.91525 c0.86441 0 1.5085 0.27119 1.8305 0.49153 z M66.1693033898305 19.62712 c-0.22034 -1.661 -0.2368 -3.2032 -0.16916 -4.8302 c0.084746 -2 -1.0169 -3.2881 -3.0847 -3.2881 c-1.3559 0 -2.7627 0.40678 -3.5932 0.86441 c-0.15254 0.084746 -0.25424 0.23712 -0.18644 0.38966 l0.42373 0.98305 c0.067797 0.16949 0.18644 0.22034 0.40678 0.11864 c1.0847 -0.49153 1.9661 -0.72881 2.8305 -0.72881 c0.91525 0 1.4576 0.35593 1.4237 1.322 c-3.1356 0.5422 -5.5254 1.1015 -5.5254 3.3049 c0 1.4746 1.0678 2.3219 2.7966 2.3219 c1.4408 0 2.1864 -0.44051 2.8983 -0.98288 c0.08458 0.50847 0.23712 0.89831 0.5761 0.89831 l1.0169 0 c0.15238 0 0.20322 -0.18644 0.18627 -0.37288 z M61.81370338983051 18.627299999999998 c-0.69492 0 -1.2373 -0.23729 -1.2373 -0.88136 c0 -1.0339 1.8981 -1.3729 3.6102 -1.7288 c-0.016949 0.55932 -0.016949 1.3051 0 1.7966 c-0.55932 0.42373 -1.5085 0.81356 -2.3729 0.81356 z M76.2710440677966 19.64424 c0.033898 0.18644 -0.016784 0.35576 -0.16916 0.35576 l-1.1017 0 c-0.44068 0 -0.66102 -0.28797 -0.66102 -0.6778 l0 -4.4068 c0 -1.1186 -0.77966 -1.7627 -1.8983 -1.7627 c-0.9661 0 -1.7797 0.45763 -2.4575 1.1186 l0 5.4578 c0 0.15238 -0.11864 0.27102 -0.27119 0.27102 l-1.3222 0 c-0.15238 0 -0.25407 -0.11864 -0.25407 -0.27102 l0 -7.8476 c0 -0.15238 0.10169 -0.27119 0.25407 -0.27119 l0.91525 0 c0.40678 0 0.66102 0.42373 0.67797 0.72881 l0 0.16949 c0.66102 -0.50864 1.5422 -1.0171 2.6947 -1.0171 c1.7458 0 3.4915 1.1019 3.4915 3.2205 l0 3.7627 c0.016784 0.47458 0.050681 0.83051 0.10153 1.1695 z M82.999806779661 19.4578 c0.050847 0.13559 -0.050681 0.22 -0.16933 0.30475 c-0.28814 0.18644 -0.91525 0.32203 -1.5424 0.32203 c-1.8136 0 -2.4746 -0.9322 -2.4746 -3.1186 l0 -3.5763 l-1 0 c-0.15254 0 -0.27119 -0.10169 -0.27119 -0.27119 l0 -0.28814 c0 -0.13559 0.033898 -0.23712 0.13559 -0.33898 c0.98305 -0.79661 1.7627 -1.6269 2.4407 -3.339 c0.050847 -0.11864 0.10169 -0.18644 0.18644 -0.18644 l0.18644 0 c0.13559 0 0.18644 0.067797 0.18644 0.22034 l0 2.4237 l1.7797 0 c0.15254 0 0.28814 0.11881 0.28814 0.28831 l0 1.2203 c0 0.15254 -0.13559 0.27119 -0.28814 0.27119 l-1.4746 0 c-0.13559 0 -0.25424 -0.016949 -0.32203 -0.050847 l0 3.4576 c0 0.98305 0.11864 1.5424 0.94915 1.5424 c0.35593 0 0.59322 -0.050847 0.79661 -0.10169 s0.33898 0.033898 0.37288 0.22051 z M90.06781525423727 16.339 c0 0.15254 -0.11864 0.27119 -0.27119 0.27119 l-5.1356 0 c-0.15254 0 -0.28814 -0.10169 -0.28814 -0.27119 l0 -1.1186 c0 -0.16949 0.11864 -0.27119 0.28814 -0.27119 l5.1356 0 c0.15254 0 0.27119 0.084746 0.27119 0.27119 l0 1.1186 z M96.10156271186439 11.5256 c1.9831 0 3.8812 1.6273 3.8812 4.1697 c0 2.4746 -1.5424 4.4064 -3.9322 4.4064 c-0.91525 0 -1.6949 -0.30475 -2.3049 -0.72847 c-0.084746 0.40678 -0.54237 0.62695 -0.88136 0.62695 l-0.67797 0 c-0.15254 0 -0.27119 -0.11864 -0.27119 -0.27102 l0 -11.831 c0 -0.52542 -0.084746 -0.79661 -0.13559 -1.1017 c-0.033732 -0.18661 0.017115 -0.3561 0.18661 -0.3561 l1.1525 0 c0.38983 0 0.64407 0.25424 0.64407 0.61017 l0 5.1356 c0.57627 -0.35593 1.3219 -0.66102 2.3388 -0.66102 z M95.76236271186438 18.3903 c1.3729 0 2.4068 -1.0169 2.4068 -2.6949 c0 -1.7288 -1.2712 -2.4576 -2.339 -2.4576 c-0.76271 0 -1.4576 0.27119 -2.0678 0.66102 l0 3.9322 c0.54237 0.30508 1.1864 0.55932 2 0.55932 z M108.69490847457625 16.4915 c0.61 0 1.0336 -0.30508 1.0336 -1.0169 c0 -2.0847 -1.6102 -3.9831 -4.0847 -3.9831 c-2.3559 0 -4.2034 1.8644 -4.2034 4.3051 c0 2.5422 1.9322 4.288 4.3051 4.288 c1.5085 0 2.6949 -0.61017 3.4237 -1.5932 c0.10186 -0.13559 0.067963 -0.23729 -0.033568 -0.37288 l-0.32203 -0.42373 c-0.13559 -0.16933 -0.27119 -0.15254 -0.44085 -0.050847 c-0.5422 0.44068 -1.4405 0.81373 -2.4236 0.81373 c-1.3898 0 -2.3729 -0.84746 -2.5593 -1.9661 l5.3051 0 z M103.38970847457625 15.050799999999999 c0.067797 -0.81356 0.83051 -1.8644 2.2203 -1.8644 c1.4068 0 2.1356 1.0678 2.1864 1.8644 l-4.4068 0 z M116.49133220338982 19.4578 c0.050847 0.13559 -0.050681 0.22 -0.16933 0.30475 c-0.28814 0.18644 -0.91525 0.32203 -1.5424 0.32203 c-1.8136 0 -2.4746 -0.9322 -2.4746 -3.1186 l0 -3.5763 l-1 0 c-0.15254 0 -0.27119 -0.10169 -0.27119 -0.27119 l0 -0.28814 c0 -0.13559 0.033898 -0.23712 0.13559 -0.33898 c0.98305 -0.79661 1.7627 -1.6269 2.4407 -3.339 c0.050847 -0.11864 0.10169 -0.18644 0.18644 -0.18644 l0.18644 0 c0.13559 0 0.18644 0.067797 0.18644 0.22034 l0 2.4237 l1.7797 0 c0.15254 0 0.28814 0.11881 0.28814 0.28831 l0 1.2203 c0 0.15254 -0.13559 0.27119 -0.28814 0.27119 l-1.4746 0 c-0.13559 0 -0.25424 -0.016949 -0.32203 -0.050847 l0 3.4576 c0 0.98305 0.11864 1.5424 0.94915 1.5424 c0.35593 0 0.59322 -0.050847 0.79661 -0.10169 s0.33898 0.033898 0.37288 0.22051 z M125.37269322033897 19.62712 c-0.22034 -1.661 -0.2368 -3.2032 -0.16916 -4.8302 c0.084746 -2 -1.0169 -3.2881 -3.0847 -3.2881 c-1.3559 0 -2.7627 0.40678 -3.5932 0.86441 c-0.15254 0.084746 -0.25424 0.23712 -0.18644 0.38966 l0.42373 0.98305 c0.067797 0.16949 0.18644 0.22034 0.40678 0.11864 c1.0847 -0.49153 1.9661 -0.72881 2.8305 -0.72881 c0.91525 0 1.4576 0.35593 1.4237 1.322 c-3.1356 0.5422 -5.5254 1.1015 -5.5254 3.3049 c0 1.4746 1.0678 2.3219 2.7966 2.3219 c1.4408 0 2.1864 -0.44051 2.8983 -0.98288 c0.08458 0.50847 0.23712 0.89831 0.5761 0.89831 l1.0169 0 c0.15238 0 0.20322 -0.18644 0.18627 -0.37288 z M121.01709322033898 18.627299999999998 c-0.69492 0 -1.2373 -0.23729 -1.2373 -0.88136 c0 -1.0339 1.8981 -1.3729 3.6102 -1.7288 c-0.016949 0.55932 -0.016949 1.3051 0 1.7966 c-0.55932 0.42373 -1.5085 0.81356 -2.3729 0.81356 z"></path></g>
			</g>
		</svg>
	